# xmcd CD database file generated by Grip 3.2.0
# 
# Track frame offsets:
#       150
#       17900
#       31050
#       45627
# 
# Disc length: 829 seconds
# 
# Revision: 1
# Processed by: cddbd v1.5.2PL0 Copyright (c) Steve Scherf et al.
# Submitted via: Grip 3.2.0
# 
DISCID=26033b04
DTITLE=Josh Kelley - For The Ride Home (Bonus Disk)
DYEAR=2004
DGENRE=Alternative
TTITLE0=Dying Man (Previously Unreleased)
TTITLE1=Solid Ground (Previously Unreleased)
TTITLE2=Small Town Boy (Acoustic Version)
TTITLE3=Amazing (Acoustic Version)
EXTD=
EXTT0=
EXTT1=
EXTT2=
EXTT3=
PLAYORDER=
